<svg width="292" height="83" viewBox="0 0 292 83" fill="none" xmlns="http://www.w3.org/2000/svg">
<path fill-rule="evenodd" clip-rule="evenodd" d="M37.8529 50.9007L1.29044 31.4007C0.720035 31.0965 0.293838 30.5782 0.105612 29.9597C-0.0826147 29.3413 -0.0174506 28.6734 0.286768 28.1029C0.514352 27.6762 0.863727 27.3268 1.29044 27.0993L37.8529 7.59926C38.5699 7.21691 39.4301 7.21691 40.1471 7.59926L76.7096 27.0993C77.28 27.4035 77.7062 27.9218 77.8944 28.5403C78.0826 29.1588 78.0175 29.8266 77.7132 30.3971C77.4857 30.8238 77.1363 31.1732 76.7096 31.4007L40.1471 50.9007C39.4301 51.2831 38.5699 51.2831 37.8529 50.9007ZM7.61719 29.25L39 45.9875L70.3828 29.25L39 12.5125L7.61719 29.25Z" fill="#1D94F8"/>
<path d="M58.4283 36.8493L40.1471 27.0993C39.794 26.911 39.4001 26.8125 39 26.8125C38.9276 26.8125 38.8553 26.8157 38.7832 26.8222C37.9637 26.8953 37.2364 27.377 36.8493 28.1029C36.661 28.456 36.5625 28.8499 36.5625 29.25C36.5625 29.3224 36.5657 29.3947 36.5722 29.4668C36.6453 30.2863 37.127 31.0136 37.8529 31.4007L54.8438 40.4625V73.125C54.8438 74.4712 55.9351 75.5625 57.2812 75.5625C58.6274 75.5625 59.7188 74.4712 59.7188 73.125V39C59.7188 38.0998 59.2226 37.2729 58.4283 36.8493Z" fill="#1D94F8"/>
<path d="M13.4062 50.3957V33.79C13.4062 32.4438 12.3149 31.3525 10.9688 31.3525C9.62256 31.3525 8.53125 32.4438 8.53125 33.79V50.4259C8.5381 52.0524 9.51877 53.337 9.51877 53.337C12.8983 57.8769 18.379 61.3185 18.379 61.3185C27.4767 67.0314 39 67.0314 39 67.0314C50.5233 67.0314 59.621 61.3185 59.621 61.3185C65.1017 57.8769 68.4989 53.3135 68.4989 53.3135C69.4619 52.0523 69.4687 50.4362 69.4687 50.4362L69.4688 33.79C69.4688 32.4438 68.3774 31.3525 67.0312 31.3525C65.6851 31.3525 64.5938 32.4438 64.5938 33.79L64.5938 50.4143C64.5937 50.401 64.5912 50.4005 64.5912 50.4005L64.5885 50.4024C61.7363 54.2337 57.0286 57.19 57.0286 57.19C49.1196 62.1564 39 62.1564 39 62.1564C28.8804 62.1564 20.9714 57.19 20.9714 57.19C16.2739 54.2402 13.4062 50.3957 13.4062 50.3957Z" fill="#1D94F8"/>
<path d="M90.45 28.763C90.45 22.818 94.452 18.265 100.948 18.265C106.661 18.265 110.431 21.397 111.04 26.443H106.4C105.936 23.746 103.79 22.325 101.006 22.325C97.439 22.325 95.09 24.558 95.09 28.763C95.09 32.997 97.439 35.23 101.006 35.23C103.79 35.23 105.936 33.78 106.4 31.083H111.04C110.431 36.158 106.661 39.29 100.948 39.29C94.452 39.29 90.45 34.737 90.45 28.763ZM112.476 34.998C112.476 32.475 113.984 30.996 118.334 30.387L122.945 29.749C122.945 28.56 122.017 27.835 120.016 27.835C118.16 27.835 117.116 28.618 117.116 29.952H112.766C112.766 26.24 115.927 24.065 120.016 24.065C124.047 24.065 127.585 26.008 127.585 30.822V34.94H129.702V39H126.483C125.091 39 124.308 38.217 124.308 36.825V36.535L125.033 34.795H123.873C123.322 37.231 121.901 39.29 117.812 39.29C113.259 39.29 112.476 36.506 112.476 34.998ZM117.116 34.128C117.116 34.969 117.928 35.23 118.711 35.23C121.263 35.23 122.945 34.157 122.945 32.359L119.204 32.881C117.812 33.084 117.116 33.287 117.116 34.128ZM147.625 39H142.985V38.101L143.855 35.491H142.695C141.941 37.434 140.549 39.29 136.924 39.29C132.69 39.29 130.573 35.81 130.573 31.663C130.573 27.516 132.69 24.065 136.924 24.065C140.549 24.065 141.941 25.921 142.695 27.864H143.855L142.985 25.254V17.685H147.625V39ZM142.985 31.663C142.985 29.198 141.593 28.125 139.099 28.125C136.605 28.125 135.213 29.198 135.213 31.663C135.213 34.128 136.605 35.23 139.099 35.23C141.593 35.23 142.985 34.128 142.985 31.663ZM149.378 31.489C149.378 26.849 152.539 24.065 157.092 24.065C161.645 24.065 164.835 26.762 164.835 31.199V32.649H153.728C153.728 34.331 154.946 35.52 157.585 35.52C159.209 35.52 160.427 34.94 160.717 33.838H165.357C165.067 35.955 162.66 39.29 157.585 39.29C151.959 39.29 149.378 35.636 149.378 31.489ZM153.728 30.039H160.485C160.485 28.937 159.673 27.835 157.092 27.835C154.511 27.835 153.728 28.937 153.728 30.039ZM167.375 39V26.559C167.375 24.964 168.274 24.094 169.869 24.123L179.468 24.355V28.415L172.015 28.241V39H167.375ZM190.039 28.125C187.516 28.125 185.863 29.459 185.863 33.577V39H181.223V24.355H185.863V26.124L184.993 28.734H186.153C186.733 26.124 188.56 24.065 191.692 24.065C195.433 24.065 197.695 26.559 197.695 31.083V39H193.055V31.808C193.055 29.14 192.272 28.125 190.039 28.125ZM199.42 31.489C199.42 26.849 202.581 24.065 207.134 24.065C211.687 24.065 214.877 26.762 214.877 31.199V32.649H203.77C203.77 34.331 204.988 35.52 207.627 35.52C209.251 35.52 210.469 34.94 210.759 33.838H215.399C215.109 35.955 212.702 39.29 207.627 39.29C202.001 39.29 199.42 35.636 199.42 31.489ZM203.77 30.039H210.527C210.527 28.937 209.715 27.835 207.134 27.835C204.553 27.835 203.77 28.937 203.77 30.039ZM224.087 35.23L229.481 34.94V39L221.912 39.29C220.317 39.348 219.447 38.42 219.447 36.825V28.415H215.967V24.355H219.447V21.6L224.087 20.15V24.355H228.901V28.415H224.087V35.23ZM231.223 34.998C231.223 32.475 232.731 30.996 237.081 30.387L241.692 29.749C241.692 28.56 240.764 27.835 238.763 27.835C236.907 27.835 235.863 28.618 235.863 29.952H231.513C231.513 26.24 234.674 24.065 238.763 24.065C242.794 24.065 246.332 26.008 246.332 30.822V34.94H248.449V39H245.23C243.838 39 243.055 38.217 243.055 36.825V36.535L243.78 34.795H242.62C242.069 37.231 240.648 39.29 236.559 39.29C232.006 39.29 231.223 36.506 231.223 34.998ZM235.863 34.128C235.863 34.969 236.675 35.23 237.458 35.23C240.01 35.23 241.692 34.157 241.692 32.359L237.951 32.881C236.559 33.084 235.863 33.287 235.863 34.128ZM98.28 46.555C103.732 46.555 109.416 47.976 109.416 56.763C109.416 65.579 103.732 67 98.28 67H90.74V46.555H98.28ZM98.28 62.94C101.905 62.94 104.776 62.65 104.776 56.763C104.776 50.905 101.905 50.615 98.28 50.615H95.38V62.94H98.28ZM116.865 50.905C115.154 50.905 114.139 50.093 114.139 48.585C114.139 47.106 115.154 46.265 116.865 46.265C118.576 46.265 119.649 47.106 119.649 48.585C119.649 50.093 118.576 50.905 116.865 50.905ZM110.862 67V62.94H115.009V56.241L111.442 56.415V52.355L116.952 52.065C118.576 51.978 119.475 52.877 119.475 54.501V62.94H123.622V67H110.862ZM140.788 52.355H142.064V56.415H141.078C140.643 56.415 140.121 56.415 139.715 56.676C139.889 56.908 140.121 57.575 140.121 58.358C140.121 61.113 137.54 62.853 133.509 64.216C136.844 64.013 139.947 64.883 139.947 67.986C139.947 72.307 134.872 72.8 123.997 72.8V68.74C133.48 68.74 135.278 68.595 135.278 67C135.278 64.854 130.029 65.811 125.534 66.565L125.041 63.955C128.376 63.607 131.392 63.259 134.06 62.621V61.461C128.695 63.375 123.04 62.592 123.04 57.778C123.04 53.921 126.694 52.065 131.305 52.065C133.538 52.065 135.568 52.5 137.105 53.631C137.975 52.5 139.483 52.355 140.788 52.355ZM131.595 60.011C134.379 60.011 135.481 59.315 135.481 58.068C135.481 56.85 134.379 56.125 131.595 56.125C128.811 56.125 127.68 56.85 127.68 58.068C127.68 59.315 128.811 60.011 131.595 60.011ZM149.235 50.905C147.524 50.905 146.509 50.093 146.509 48.585C146.509 47.106 147.524 46.265 149.235 46.265C150.946 46.265 152.019 47.106 152.019 48.585C152.019 50.093 150.946 50.905 149.235 50.905ZM143.232 67V62.94H147.379V56.241L143.812 56.415V52.355L149.322 52.065C150.946 51.978 151.845 52.877 151.845 54.501V62.94H155.992V67H143.232ZM162.943 63.23L168.337 62.94V67L160.768 67.29C159.173 67.348 158.303 66.42 158.303 64.825V56.415H154.823V52.355H158.303V49.6L162.943 48.15V52.355H167.757V56.415H162.943V63.23ZM170.08 62.998C170.08 60.475 171.588 58.996 175.938 58.387L180.549 57.749C180.549 56.56 179.621 55.835 177.62 55.835C175.764 55.835 174.72 56.618 174.72 57.952H170.37C170.37 54.24 173.531 52.065 177.62 52.065C181.651 52.065 185.189 54.008 185.189 58.822V62.94H187.306V67H184.087C182.695 67 181.912 66.217 181.912 64.825V64.535L182.637 62.795H181.477C180.926 65.231 179.505 67.29 175.416 67.29C170.863 67.29 170.08 64.506 170.08 62.998ZM174.72 62.128C174.72 62.969 175.532 63.23 176.315 63.23C178.867 63.23 180.549 62.157 180.549 60.359L176.808 60.881C175.416 61.084 174.72 61.287 174.72 62.128ZM188.453 67V62.94H192.513V49.571L189.033 49.745V45.685L194.63 45.482C196.254 45.424 197.153 46.294 197.153 47.918V62.94H201.213V67H188.453Z" fill="#2E2E2F"/>
</svg>
