<svg width="42" height="42" viewBox="0 0 42 42" fill="none" xmlns="http://www.w3.org/2000/svg">
<path d="M13.5 19.125H6C4.50816 19.125 3.07742 18.5324 2.02252 17.4775C0.967633 16.4226 0.375 14.9918 0.375 13.5V6C0.375 4.50816 0.967633 3.07742 2.02252 2.02252C3.07742 0.967633 4.50816 0.375 6 0.375H13.5C14.9918 0.375 16.4226 0.967633 17.4775 2.02252C18.5324 3.07742 19.125 4.50816 19.125 6V13.5C19.125 14.9918 18.5324 16.4226 17.4775 17.4775C16.4226 18.5324 14.9918 19.125 13.5 19.125ZM6 4.125C5.50473 4.13147 5.03157 4.3311 4.68133 4.68133C4.3311 5.03157 4.13147 5.50473 4.125 6V13.5C4.13147 13.9953 4.3311 14.4684 4.68133 14.8187C5.03157 15.1689 5.50473 15.3685 6 15.375H13.5C13.9953 15.3685 14.4684 15.1689 14.8187 14.8187C15.1689 14.4684 15.3685 13.9953 15.375 13.5V6C15.3685 5.50473 15.1689 5.03157 14.8187 4.68133C14.4684 4.3311 13.9953 4.13147 13.5 4.125H6Z" fill="#1D94F8"/>
<path d="M13.5 41.625H6C4.50816 41.625 3.07742 41.0324 2.02252 39.9775C0.967633 38.9226 0.375 37.4918 0.375 36V28.5C0.375 27.0082 0.967633 25.5774 2.02252 24.5225C3.07742 23.4676 4.50816 22.875 6 22.875H13.5C14.9918 22.875 16.4226 23.4676 17.4775 24.5225C18.5324 25.5774 19.125 27.0082 19.125 28.5V36C19.125 37.4918 18.5324 38.9226 17.4775 39.9775C16.4226 41.0324 14.9918 41.625 13.5 41.625ZM6 26.625C5.50473 26.6315 5.03157 26.8311 4.68133 27.1813C4.3311 27.5316 4.13147 28.0047 4.125 28.5V36C4.13147 36.4953 4.3311 36.9684 4.68133 37.3187C5.03157 37.6689 5.50473 37.8685 6 37.875H13.5C13.9953 37.8685 14.4684 37.6689 14.8187 37.3187C15.1689 36.9684 15.3685 36.4953 15.375 36V28.5C15.3685 28.0047 15.1689 27.5316 14.8187 27.1813C14.4684 26.8311 13.9953 26.6315 13.5 26.625H6Z" fill="#1D94F8"/>
<path d="M36 19.125H28.5C27.0082 19.125 25.5774 18.5324 24.5225 17.4775C23.4676 16.4226 22.875 14.9918 22.875 13.5V6C22.875 4.50816 23.4676 3.07742 24.5225 2.02252C25.5774 0.967633 27.0082 0.375 28.5 0.375H36C37.4918 0.375 38.9226 0.967633 39.9775 2.02252C41.0324 3.07742 41.625 4.50816 41.625 6V13.5C41.625 14.9918 41.0324 16.4226 39.9775 17.4775C38.9226 18.5324 37.4918 19.125 36 19.125ZM28.5 4.125C28.0047 4.13147 27.5316 4.3311 27.1813 4.68133C26.8311 5.03157 26.6315 5.50473 26.625 6V13.5C26.6315 13.9953 26.8311 14.4684 27.1813 14.8187C27.5316 15.1689 28.0047 15.3685 28.5 15.375H36C36.4953 15.3685 36.9684 15.1689 37.3187 14.8187C37.6689 14.4684 37.8685 13.9953 37.875 13.5V6C37.8685 5.50473 37.6689 5.03157 37.3187 4.68133C36.9684 4.3311 36.4953 4.13147 36 4.125H28.5Z" fill="#1D94F8"/>
<path d="M36 41.625H28.5C27.0082 41.625 25.5774 41.0324 24.5225 39.9775C23.4676 38.9226 22.875 37.4918 22.875 36V28.5C22.875 27.0082 23.4676 25.5774 24.5225 24.5225C25.5774 23.4676 27.0082 22.875 28.5 22.875H36C37.4918 22.875 38.9226 23.4676 39.9775 24.5225C41.0324 25.5774 41.625 27.0082 41.625 28.5V36C41.625 37.4918 41.0324 38.9226 39.9775 39.9775C38.9226 41.0324 37.4918 41.625 36 41.625ZM28.5 26.625C28.0047 26.6315 27.5316 26.8311 27.1813 27.1813C26.8311 27.5316 26.6315 28.0047 26.625 28.5V36C26.6315 36.4953 26.8311 36.9684 27.1813 37.3187C27.5316 37.6689 28.0047 37.8685 28.5 37.875H36C36.4953 37.8685 36.9684 37.6689 37.3187 37.3187C37.6689 36.9684 37.8685 36.4953 37.875 36V28.5C37.8685 28.0047 37.6689 27.5316 37.3187 27.1813C36.9684 26.8311 36.4953 26.6315 36 26.625H28.5Z" fill="#1D94F8"/>
</svg>
